<svg width="423" height="425" viewBox="0 0 423 425" fill="none" xmlns="http://www.w3.org/2000/svg">
<g filter="url(#filter0_d_83_74)">
<path d="M334.564 17.9256C346.256 52.7147 355.636 89.0346 363.713 125.631C375.406 178.62 409.334 334.915 411.128 343.078C411.235 343.05 411.341 343.022 411.447 342.993C411.447 342.993 375.952 179.613 363.948 125.195C355.878 88.5866 346.492 52.279 334.809 17.4872L334.564 17.9256Z" fill="#E3BF38"/>
<path d="M411.693 343.331C335.489 361.462 306.091 365.301 267.723 368.314C231.109 371.189 132.697 366.055 102.369 345.328C74.9716 326.611 39.8433 177.119 20.8383 83.7051C20.8383 83.7051 180.254 48.599 233.376 36.8601C267.643 29.283 300.493 23.3381 334.556 17.9379C346.249 52.7271 355.629 89.047 363.706 125.643C375.709 180.061 411.693 343.331 411.693 343.331Z" fill="url(#paint0_linear_83_74)"/>
<path style="mix-blend-mode:overlay" opacity="0.5" d="M411.693 343.331C335.489 361.462 306.091 365.301 267.723 368.314C231.109 371.189 132.697 366.055 102.369 345.328C74.9716 326.611 39.8433 177.119 20.8383 83.7051C20.8383 83.7051 180.254 48.599 233.376 36.8601C267.643 29.283 300.493 23.3381 334.556 17.9379C346.249 52.7271 355.629 89.047 363.706 125.643C375.709 180.061 411.693 343.331 411.693 343.331Z" fill="url(#paint1_radial_83_74)"/>
<path style="mix-blend-mode:soft-light" opacity="0.2" d="M411.693 343.331C335.489 361.462 306.091 365.301 267.723 368.314C231.109 371.189 132.697 366.055 102.369 345.328C74.9716 326.611 39.8433 177.119 20.8383 83.7051C20.8383 83.7051 180.254 48.599 233.376 36.8601C267.643 29.283 300.493 23.3381 334.556 17.9379C346.249 52.7271 355.629 89.047 363.706 125.643C375.709 180.061 411.693 343.331 411.693 343.331Z" fill="url(#paint2_linear_83_74)"/>
<path d="M334.801 17.4995C300.738 22.8997 267.89 28.8543 233.621 36.4216C180.489 48.1632 20.7713 83.3398 20.7713 83.3398C20.8023 83.4557 20.8167 83.5865 20.8477 83.7024C28.3856 82.0449 181.573 48.3074 233.385 36.8574C267.652 29.2804 300.503 23.3354 334.566 17.9352L334.81 17.4969L334.801 17.4995Z" fill="url(#paint3_linear_83_74)"/>
<path d="M171.201 363.896C142.691 360.271 116.311 354.275 103.015 345.186C75.6174 326.469 40.4891 176.977 21.4841 83.5631L20.7721 83.3398C39.777 176.754 74.9721 326.611 102.37 345.328C115.778 354.49 142.475 360.505 171.251 364.12L171.191 363.898L171.201 363.896Z" fill="#A88700"/>
<path d="M164.891 363.454C202.877 368.908 246.085 370.012 267.721 368.305C229.624 368.812 191.809 356.345 156.203 323.998L164.898 363.441L164.891 363.454Z" fill="#FCFCFC"/>
<path d="M156.196 324.01C140.398 337.612 116.944 353.007 104.234 345.988C103.504 345.583 102.631 345.454 101.912 344.974C102.067 345.088 102.217 345.224 102.369 345.328C114.776 353.806 138.586 359.673 164.891 363.454L156.196 324.01Z" fill="url(#paint4_linear_83_74)"/>
<path d="M102.369 345.327C132.684 366.047 231.106 371.179 267.722 368.314C229.626 368.821 192.094 357.644 156.489 325.298C139.835 339.647 115.702 354.209 101.924 344.981C102.079 345.095 102.229 345.23 102.381 345.334L102.369 345.327Z" fill="url(#paint5_linear_83_74)"/>
<path d="M296.698 24.2824C309.368 22.0365 323.171 19.7667 334.01 18.6432C342.158 40.0124 349.144 66.0827 355.629 91.0966C349.472 66.264 342.558 41.7376 334.553 17.9282C321.811 19.9448 309.235 22.0412 296.695 24.2727L296.698 24.2824Z" fill="white"/>
</g>
<path d="M171.289 95.8918C170.9 94.4209 169.387 93.5449 167.916 93.9347C166.435 94.3275 165.559 95.8405 165.962 97.3179C166.352 98.7887 167.868 99.6743 169.345 99.2719C170.816 98.8821 171.692 97.3691 171.299 95.8888L171.289 95.8918Z" fill="#060500" fill-opacity="0.62"/>
<path d="M181.332 74.3505L170.562 97.9451C169.358 99.4146 166.04 97.9013 166.18 95.9491L176.953 72.364L181.326 74.363L181.332 74.3505Z" fill="url(#paint6_linear_83_74)"/>
<path style="mix-blend-mode:multiply" d="M181.332 74.3505L170.562 97.9451C169.358 99.4146 166.04 97.9013 166.18 95.9491L176.953 72.364L181.326 74.363L181.332 74.3505Z" fill="url(#paint7_linear_83_74)"/>
<path d="M200.039 62.8401C203.838 72.4738 198.871 82.4358 188.928 85.0849C178.984 87.7339 167.838 82.0702 164.027 72.43C160.218 62.7993 165.195 52.8343 175.141 50.1948C185.085 47.5458 196.23 53.2094 200.039 62.8401Z" fill="#8A0000"/>
<path d="M201.112 62.8168C204.92 72.4475 199.941 82.4029 189.997 85.052C180.054 87.701 168.908 82.0373 165.109 72.4036C161.3 62.7729 166.277 52.8079 176.223 50.1684C186.167 47.5194 197.312 53.183 201.121 62.8138L201.112 62.8168Z" fill="url(#paint8_radial_83_74)"/>
<path d="M200.076 63.0906C196.483 54.0106 185.974 48.6707 176.599 51.1616C176.291 51.2482 175.998 51.3508 175.703 51.4439C185.067 48.9877 195.532 54.3205 199.119 63.3814C202.588 72.1652 198.3 81.2213 189.54 84.064C189.559 84.058 189.578 84.052 189.597 84.046C198.968 81.5456 203.667 72.161 200.073 63.0811L200.076 63.0906Z" fill="#F87979"/>
<path d="M205.011 44.6363L192.985 71.8977C189.026 79.4032 170.387 72.8493 173.828 63.934L185.855 36.6727L205.011 44.6363Z" fill="url(#paint9_linear_83_74)"/>
<path d="M174.016 63.6018L185.889 36.6826L185.851 36.663L173.824 63.9243C169.565 73.1707 188.584 79.5317 192.971 71.9226C188.62 78.8492 170.644 72.3695 174.016 63.6018Z" fill="url(#paint10_linear_83_74)"/>
<path d="M209.084 38.9606C211.979 46.2894 208.19 53.8674 200.626 55.8824C193.062 57.8975 184.576 53.5875 181.681 46.2587C178.795 38.9268 182.575 31.3519 190.139 29.3368C197.703 27.3218 206.18 31.6347 209.084 38.9606Z" fill="#990000"/>
<path d="M208.652 38.5199C211.38 45.419 207.814 52.5389 200.695 54.4349C193.576 56.3308 185.6 52.2793 182.872 45.3802C180.156 38.4876 183.72 31.3582 190.839 29.4622C197.958 27.5662 205.933 31.6178 208.662 38.5169L208.652 38.5199Z" fill="url(#paint11_linear_83_74)"/>
<path d="M208.023 38.6867C205.431 32.1219 197.845 28.2729 191.072 30.0703C190.764 30.1569 190.471 30.2595 190.175 30.3526C196.925 28.5834 204.483 32.4414 207.066 38.9775C209.542 45.243 206.56 51.6863 200.398 53.826C200.417 53.82 200.436 53.814 200.455 53.8079C207.225 52.001 210.618 45.2293 208.017 38.6676L208.023 38.6867Z" fill="#FE9696"/>
<defs>
<filter id="filter0_d_83_74" x="0.571485" y="14.2873" width="419.321" height="379.962" filterUnits="userSpaceOnUse" color-interpolation-filters="sRGB">
<feFlood flood-opacity="0" result="BackgroundImageFix"/>
<feColorMatrix in="SourceAlpha" type="matrix" values="0 0 0 0 0 0 0 0 0 0 0 0 0 0 0 0 0 0 127 0" result="hardAlpha"/>
<feOffset dx="-6" dy="11"/>
<feGaussianBlur stdDeviation="7.1"/>
<feComposite in2="hardAlpha" operator="out"/>
<feColorMatrix type="matrix" values="0 0 0 0 0 0 0 0 0 0 0 0 0 0 0 0 0 0 0.25 0"/>
<feBlend mode="normal" in2="BackgroundImageFix" result="effect1_dropShadow_83_74"/>
<feBlend mode="normal" in="SourceGraphic" in2="effect1_dropShadow_83_74" result="shape"/>
</filter>
<linearGradient id="paint0_linear_83_74" x1="138.107" y1="366.321" x2="315.489" y2="19.5313" gradientUnits="userSpaceOnUse">
<stop stop-color="#FFF199"/>
<stop offset="0.03" stop-color="#F7E789"/>
<stop offset="0.08" stop-color="#EFDC79"/>
<stop offset="0.12" stop-color="#EDD974"/>
<stop offset="0.34" stop-color="#FFF199"/>
<stop offset="0.59" stop-color="#FFF0A3"/>
<stop offset="0.82" stop-color="#FFEEAC"/>
<stop offset="0.87" stop-color="#FDEBA5"/>
<stop offset="0.93" stop-color="#F8E392"/>
<stop offset="1" stop-color="#F2DA79"/>
</linearGradient>
<radialGradient id="paint1_radial_83_74" cx="0" cy="0" r="1" gradientUnits="userSpaceOnUse" gradientTransform="translate(212.168 212.893) rotate(-12.43) scale(240.99 240.99)">
<stop stop-color="white"/>
<stop offset="0.09" stop-color="#F7F7F7"/>
<stop offset="0.22" stop-color="#E4E4E4"/>
<stop offset="0.37" stop-color="#C4C4C4"/>
<stop offset="0.54" stop-color="#979797"/>
<stop offset="0.73" stop-color="#5E5E5E"/>
<stop offset="0.93" stop-color="#1A1A1A"/>
<stop offset="1"/>
</radialGradient>
<linearGradient id="paint2_linear_83_74" x1="56.8343" y1="248.841" x2="375.378" y2="178.63" gradientUnits="userSpaceOnUse">
<stop/>
<stop offset="0.54" stop-color="white"/>
<stop offset="0.58" stop-color="#F7F7F7"/>
<stop offset="0.64" stop-color="#E4E4E4"/>
<stop offset="0.71" stop-color="#C4C4C4"/>
<stop offset="0.79" stop-color="#979797"/>
<stop offset="0.88" stop-color="#5E5E5E"/>
<stop offset="0.97" stop-color="#1A1A1A"/>
<stop offset="1"/>
</linearGradient>
<linearGradient id="paint3_linear_83_74" x1="23.0768" y1="92.0602" x2="332.559" y2="9.13459" gradientUnits="userSpaceOnUse">
<stop offset="0.79" stop-color="#DEB255"/>
<stop offset="1" stop-color="#C49E4A"/>
</linearGradient>
<linearGradient id="paint4_linear_83_74" x1="132.526" y1="357.311" x2="142.84" y2="320.293" gradientUnits="userSpaceOnUse">
<stop offset="0.11" stop-color="#A88700"/>
<stop offset="0.47" stop-color="#FFD11C"/>
<stop offset="1" stop-color="#AB8A00"/>
</linearGradient>
<linearGradient id="paint5_linear_83_74" x1="180.868" y1="370.781" x2="190.867" y2="334.887" gradientUnits="userSpaceOnUse">
<stop stop-color="#DECB7F"/>
<stop offset="0.14" stop-color="#C9A000"/>
<stop offset="0.26" stop-color="#D6AE13"/>
<stop offset="0.51" stop-color="#F7D445"/>
<stop offset="0.56" stop-color="#FFDC50"/>
<stop offset="0.65" stop-color="#FFDC53"/>
<stop offset="0.74" stop-color="#FFDE5E"/>
<stop offset="0.82" stop-color="#FFE171"/>
<stop offset="0.9" stop-color="#FFE68B"/>
<stop offset="0.95" stop-color="#FFEAA1"/>
</linearGradient>
<linearGradient id="paint6_linear_83_74" x1="175.02" y1="86.9142" x2="170.624" y2="84.9073" gradientUnits="userSpaceOnUse">
<stop stop-color="#696969"/>
<stop offset="0.26" stop-color="#FCFCFC"/>
<stop offset="0.55" stop-color="#D4D4D4"/>
<stop offset="0.78" stop-color="#434343"/>
<stop offset="0.82" stop-color="#474747"/>
<stop offset="0.87" stop-color="#535353"/>
<stop offset="0.91" stop-color="#676767"/>
<stop offset="0.96" stop-color="#848484"/>
<stop offset="1" stop-color="#A8A8A8"/>
</linearGradient>
<linearGradient id="paint7_linear_83_74" x1="171.14" y1="89.5949" x2="175.94" y2="79.0827" gradientUnits="userSpaceOnUse">
<stop stop-color="white"/>
<stop offset="1"/>
</linearGradient>
<radialGradient id="paint8_radial_83_74" cx="0" cy="0" r="1" gradientUnits="userSpaceOnUse" gradientTransform="translate(188.837 64.0357) rotate(-14.9098) scale(35.18)">
<stop stop-color="#FF5555"/>
<stop offset="0.08" stop-color="#FA5151"/>
<stop offset="0.17" stop-color="#EE4747"/>
<stop offset="0.25" stop-color="#DA3636"/>
<stop offset="0.34" stop-color="#BD1E1E"/>
<stop offset="0.42" stop-color="#990000"/>
<stop offset="0.53" stop-color="#A80000"/>
<stop offset="0.67" stop-color="#DD3636"/>
<stop offset="0.83" stop-color="#8C0000"/>
</radialGradient>
<linearGradient id="paint9_linear_83_74" x1="178.093" y1="52.4815" x2="198.429" y2="62.0098" gradientUnits="userSpaceOnUse">
<stop stop-color="#B40000"/>
<stop offset="0.08" stop-color="#A20000"/>
<stop offset="0.16" stop-color="#960000"/>
<stop offset="0.25" stop-color="#920000"/>
<stop offset="0.58" stop-color="#B40000"/>
<stop offset="0.87" stop-color="#FF8484"/>
<stop offset="1" stop-color="#AD2828"/>
</linearGradient>
<linearGradient id="paint10_linear_83_74" x1="178.117" y1="53.1989" x2="197.484" y2="62.2715" gradientUnits="userSpaceOnUse">
<stop stop-color="#900000"/>
<stop offset="0.06" stop-color="#850000"/>
<stop offset="0.15" stop-color="#790000"/>
<stop offset="0.25" stop-color="#750000"/>
<stop offset="0.58" stop-color="#900000"/>
<stop offset="0.87" stop-color="#DE5757"/>
<stop offset="1" stop-color="#9E0C0C"/>
</linearGradient>
<linearGradient id="paint11_linear_83_74" x1="182.966" y1="35.961" x2="208.562" y2="47.9488" gradientUnits="userSpaceOnUse">
<stop stop-color="#D10606"/>
<stop offset="0.11" stop-color="#DA1717"/>
<stop offset="0.34" stop-color="#E83434"/>
<stop offset="0.56" stop-color="#F34848"/>
<stop offset="0.78" stop-color="#F95454"/>
<stop offset="1" stop-color="#FC5959"/>
</linearGradient>
</defs>
</svg>
